HIERARCHY
ROOT Hips
{
	OFFSET 0.00000 0.00000 0.00000
	CHANNELS 6 Xposition Yposition Zposition Zrotation Yrotation Xrotation 
	JOINT LHipJoint
	{
		OFFSET 0 0 0
		CHANNELS 3 Zrotation Yrotation Xrotation
		JOINT LeftHip
		{
			OFFSET 1.59715 -1.91394 0.36268
			CHANNELS 3 Zrotation Yrotation Xrotation
			JOINT LeftKnee
			{
				OFFSET 2.53886 -6.97546 0.00000
				CHANNELS 3 Zrotation Yrotation Xrotation
				JOINT LeftAnkle
				{
					OFFSET 2.77084 -7.61284 0.00000
					CHANNELS 3 Zrotation Yrotation Xrotation
					JOINT LeftToe
					{
						OFFSET 0.19855 -0.54550 2.06057
						CHANNELS 3 Zrotation Yrotation Xrotation
						End Site
						{
							OFFSET 0.00000 -0.00000 1.07182
						}
					}
				}
			}
		}
	}
	JOINT RHipJoint
	{
		OFFSET 0 0 0
		CHANNELS 3 Zrotation Yrotation Xrotation
		JOINT RightHip
		{
			OFFSET -1.71086 -1.91394 0.36268
			CHANNELS 3 Zrotation Yrotation Xrotation
			JOINT RightKnee
			{
				OFFSET -2.59448 -7.12828 0.00000
				CHANNELS 3 Zrotation Yrotation Xrotation
				JOINT RightAnkle
				{
					OFFSET -2.80237 -7.69945 0.00000
					CHANNELS 3 Zrotation Yrotation Xrotation
					JOINT RightToe
					{
						OFFSET -0.18280 -0.50224 2.06614
						CHANNELS 3 Zrotation Yrotation Xrotation
						End Site
						{
							OFFSET -0.00000 -0.00000 1.07055
						}
					}
				}
			}
		}
	}
	JOINT lowerback
	{
		OFFSET 0 0 0
		CHANNELS 3 Zrotation Yrotation Xrotation
		JOINT Chest
		{
			OFFSET 0.04838 1.91536 -0.09733
			CHANNELS 3 Zrotation Yrotation Xrotation
			JOINT Chest2
			{
				OFFSET 0.04097 1.92183 -0.02751
				CHANNELS 3 Zrotation Yrotation Xrotation
				JOINT lowerneck
				{
					OFFSET 0 0 0
					CHANNELS 3 Zrotation Yrotation Xrotation
					JOINT Neck
					{
						OFFSET 0.18766 3.12816 0.13727
						CHANNELS 3 Zrotation Yrotation Xrotation
						JOINT Head
						{
							OFFSET -0.11178 3.16074 0.02732
							CHANNELS 3 Zrotation Yrotation Xrotation
							End Site
							{
								OFFSET 0.47685 1.04189 0.57898
							}
						}
					}
				}
				JOINT LeftCollar
				{
					OFFSET 0 0 0
					CHANNELS 3 Zrotation Yrotation Xrotation
					JOINT LeftShoulder
					{
						OFFSET 3.49325 0.99827 -0.10681
CHANNELS 3 Zrotation Xrotation Yrotation
						JOINT LeftElbow
						{
OFFSET 0 -5.128420 0.000000
CHANNELS 3 Zrotation Xrotation Yrotation
							JOINT LeftWrist
							{
OFFSET 0 -3.473960 0.000000
CHANNELS 3 Zrotation Xrotation Yrotation
								JOINT lhand
								{
									OFFSET 0 0 0
CHANNELS 3 Zrotation Xrotation Yrotation
									JOINT LFingers
									{
OFFSET 0 -0.728610 0.000000
CHANNELS 3 Zrotation Xrotation Yrotation
										End Site
										{
OFFSET 0 -0.587420 0.000000
										}
									}
								}
								JOINT LThumb
								{
OFFSET 0 0.000000 0.000000
CHANNELS 3 Zrotation Xrotation Yrotation
									End Site
									{
OFFSET 0 -0.596390 0.596390
									}
								}
							}
						}
					}
				}
				JOINT RightCollar
				{
					OFFSET 0 0 0
					CHANNELS 3 Zrotation Yrotation Xrotation
					JOINT RightShoulder
					{
						OFFSET -3.23261 1.50670 -0.18692
CHANNELS 3 Zrotation Xrotation Yrotation
						JOINT RightElbow
						{
OFFSET 0 -5.484770 -0.000000
CHANNELS 3 Zrotation Xrotation Yrotation
							JOINT RightWrist
							{
OFFSET 0 -3.478560 0.000000
CHANNELS 3 Zrotation Xrotation Yrotation
								JOINT rhand
								{
									OFFSET 0 0 0
CHANNELS 3 Zrotation Xrotation Yrotation
									JOINT RFingers
									{
OFFSET 0 -0.709970 0.000000
CHANNELS 3 Zrotation Xrotation Yrotation
										End Site
										{
OFFSET 0 -0.572400 0.000000
										}
									}
								}
								JOINT RThumb
								{
OFFSET 0 0.000000 0.000000
CHANNELS 3 Zrotation Xrotation Yrotation
									End Site
									{
OFFSET 0 -0.581140 0.581140
									}
								}
							}
						}
					}
				}
			}
		}
	}
}
MOTION
Frames: 12
Frame Time: 0.008333333333333333
-13.005478 17.801598 -5.617544 -0.619541 43.055603 -355.905634 0.000000 0.000000 0.000000 -12.940240 -19.378401 -13.457313 2.806827 10.375457 30.201411 1.026771 -4.750280 -18.153878 0.009905 -0.636162 -1.748095 0.000000 0.000000 0.000000 9.675624 15.144728 -25.383384 -7.141744 -15.449735 49.407837 -0.688877 -6.021871 -19.015407 -0.683373 -5.281162 14.713144 1.195562 0.447253 10.922008 3.014932 0.917054 1.848714 2.337453 0.472857 -4.226153 -2.090377 2.341599 -7.830256 -8.351992 8.412140 38.575889 -1.808576 2.625560 15.185332 0.000000 0.000000 0.000000 -0.235405 5.738014 -1.869424 21.692308 -32.627576 6.419191 17.653743 17.424211 -29.848606 0.000000 0.000000 0.000000 -7.125000 0.000000 0.000000 -15.713799 60.346515 5.968294 0.000000 0.000000 0.000000 -5.441278 4.615568 8.093993 -19.711286 -30.292867 -5.385020 -33.445373 -16.715189 -16.830720 0.000000 0.000000 0.000000 7.125000 0.000000 0.000000 -3.655628 10.084641 -2.965274
-12.492133 17.647070 -6.110775 -1.287723 40.136193 -355.794633 0.000000 0.000000 0.000000 -14.634365 -19.007506 -17.029708 3.903637 12.030817 35.841513 1.307380 -3.251982 -20.789406 0.000441 0.096772 0.265862 0.000000 0.000000 0.000000 23.387182 5.486577 -30.274340 -8.298870 -16.334610 53.631930 -1.325226 6.841748 -20.583929 -0.066123 1.554587 -4.278472 1.175873 0.133695 11.148244 2.430498 0.481409 1.195022 1.803687 0.248831 -5.016247 -1.647498 2.877989 -7.449747 -8.555273 9.031380 38.208539 -1.889220 2.916698 14.979947 0.000000 0.000000 0.000000 0.958909 6.896972 1.675821 21.341565 -32.224793 6.231100 17.289743 16.497313 -30.622008 0.000000 0.000000 0.000000 -7.125000 0.000000 0.000000 -16.667312 61.003622 6.602740 0.000000 0.000000 0.000000 -3.350131 5.768333 10.774558 -19.977985 -30.615814 -5.520192 -32.483630 -16.432651 -16.596592 0.000000 0.000000 0.000000 7.125000 0.000000 0.000000 -3.062900 10.541832 -2.454469
-11.952412 17.592403 -6.349189 0.036849 36.767318 -355.093160 0.000000 0.000000 0.000000 -17.976169 -15.561348 -17.814693 4.200353 12.422391 37.242990 1.485179 -4.484135 -22.015857 0.067507 1.676151 4.611531 0.000000 0.000000 0.000000 25.779062 7.820798 -22.624374 -5.707162 -14.138195 43.794338 -1.487120 -4.197847 -24.879566 -1.590802 -7.909667 22.465302 2.782458 0.132806 9.961463 2.030022 0.598170 1.185367 0.464270 0.274061 -4.346754 -2.775154 3.408278 -7.593366 -9.547880 10.418640 37.906091 -1.893419 3.232380 15.006621 0.000000 0.000000 0.000000 -1.547756 6.661259 4.794983 19.870424 -30.485874 5.465461 14.865361 17.630924 -29.502875 0.000000 0.000000 0.000000 -7.125000 0.000000 0.000000 -18.456641 59.365106 6.614577 0.000000 0.000000 0.000000 -3.540115 6.684646 9.026212 -19.240943 -29.716955 -5.149722 -32.839365 -16.498109 -16.539092 0.000000 0.000000 0.000000 7.125000 0.000000 0.000000 -3.302544 10.539881 -2.647327
-11.482312 17.683268 -6.547116 -1.159304 33.348837 -356.099235 0.000000 0.000000 0.000000 -18.574484 -12.995586 -16.998920 4.080933 12.267331 36.684245 1.446463 -5.714809 -21.586780 0.082962 1.853352 5.100579 0.000000 0.000000 0.000000 25.218483 9.318346 -20.353524 -5.274381 -13.686269 41.995063 -1.445480 -3.165511 -24.042387 -1.832851 -8.506975 24.265930 3.502347 0.059213 9.589542 3.267012 0.611171 1.479907 1.346633 0.288741 -3.840075 -1.655729 3.541271 -7.450259 -10.848723 10.596595 37.142829 -2.598650 3.324423 14.778666 0.000000 0.000000 0.000000 -5.989399 7.867516 1.885599 20.657784 -31.426653 5.870491 13.069171 15.578491 -28.905901 0.000000 0.000000 0.000000 -7.125000 0.000000 0.000000 -19.912213 58.400027 6.696724 0.000000 0.000000 0.000000 -6.848547 4.976452 6.027453 -17.423227 -27.412351 -4.280433 -32.542959 -14.690437 -14.969698 0.000000 0.000000 0.000000 7.125000 0.000000 0.000000 -3.316328 12.403844 -2.530787
-11.198311 17.721326 -6.629509 -1.848440 36.336209 -356.099858 0.000000 0.000000 0.000000 -18.714813 -11.408892 -18.129328 4.082702 12.269477 36.692172 1.782168 -7.938893 -23.930103 0.047762 -1.349379 -3.711565 0.000000 0.000000 0.000000 25.027966 9.157862 -19.537441 -4.959779 -13.338316 40.648529 -1.273860 -6.459751 -24.548640 -1.033209 -6.464445 18.138322 3.866525 -1.093689 8.943164 3.454600 -0.884457 0.880439 1.526241 -0.461345 -4.108820 -1.675538 3.003728 -7.436516 -9.383912 9.263001 37.654446 -2.194951 2.888678 14.785693 0.000000 0.000000 0.000000 -4.101433 8.409849 -5.223651 21.907172 -32.871888 6.535428 10.615977 17.701502 -26.487224 0.000000 0.000000 0.000000 -7.125000 0.000000 0.000000 -20.804462 55.627996 5.601272 0.000000 0.000000 0.000000 -5.964147 6.559368 3.823334 -19.768717 -30.362666 -5.413989 -32.088441 -19.664401 -14.781876 0.000000 0.000000 0.000000 7.125000 0.000000 0.000000 -3.038210 12.698618 -2.299268
-10.946425 17.713905 -6.828427 -3.549131 39.989236 -357.296018 0.000000 0.000000 0.000000 -14.986338 -8.744577 -25.194867 6.228653 14.645822 45.891702 1.929675 -10.219384 -24.974516 0.395295 -4.036636 -11.179824 0.000000 0.000000 0.000000 25.763421 9.187070 -18.876982 -4.829802 -13.189481 40.082093 -1.297606 -8.756552 -26.311448 -1.823103 -8.481555 24.190130 4.905931 -1.490788 10.172310 3.758718 -1.177510 0.748385 1.337428 -0.626988 -4.952469 -1.681151 2.088991 -7.777136 -8.659981 7.654906 37.719393 -2.117496 2.276454 14.728339 0.000000 0.000000 0.000000 -2.540171 6.443500 -7.319387 24.655932 -35.850038 8.087622 12.382885 15.015386 -26.651035 0.000000 0.000000 0.000000 -7.125000 0.000000 0.000000 -19.135975 56.134273 5.361876 0.000000 0.000000 0.000000 -6.020160 6.936567 4.166908 -18.011333 -28.171252 -4.554804 -32.167757 -17.623319 -16.437705 0.000000 0.000000 0.000000 7.125000 0.000000 0.000000 -2.877327 10.782919 -2.291999
-10.466845 17.805503 -6.972948 -4.868731 40.791241 -358.765119 0.000000 0.000000 0.000000 -8.145368 -8.481017 -26.620090 6.415455 14.818868 46.626542 0.924612 6.805784 -21.853935 0.347098 3.785514 10.474022 0.000000 0.000000 0.000000 25.463702 7.269956 -16.668789 -4.295622 -12.543702 37.683513 -0.965277 -10.061269 -24.759238 -0.862918 -5.913688 16.537118 4.286585 -1.592984 10.680084 3.750943 -1.358594 0.972338 1.712290 -0.701072 -4.988383 -1.644787 1.975446 -7.341762 -8.274345 7.356559 37.956287 -2.018795 2.206477 14.698487 0.000000 0.000000 0.000000 -0.573742 6.421321 -8.282600 26.143619 -37.350172 8.974606 10.518131 13.114689 -24.950947 0.000000 0.000000 0.000000 -7.125000 0.000000 0.000000 -19.990200 54.170788 4.647684 0.000000 0.000000 0.000000 -6.128271 6.268144 4.720761 -17.540178 -27.564359 -4.334404 -32.025874 -16.488091 -16.255258 0.000000 0.000000 0.000000 7.125000 0.000000 0.000000 -2.809038 11.018731 -2.223196
-9.698572 17.900491 -7.187109 -5.762093 41.616981 -358.894993 0.000000 0.000000 0.000000 -2.830568 -8.679819 -24.883693 4.276676 12.519786 37.596401 -0.459695 17.357033 -19.853515 1.247299 7.080887 19.955167 0.000000 0.000000 0.000000 24.109465 6.435978 -14.798451 -3.761247 -11.835727 35.153243 -0.852898 -11.283422 -24.925225 -0.869425 -5.945281 16.625736 3.989759 -2.036732 10.073754 3.704839 -2.023039 0.815599 1.909664 -1.024929 -4.806799 -1.936329 2.121918 -7.513345 -8.286276 7.645423 37.905153 -1.928601 2.274262 14.724540 0.000000 0.000000 0.000000 -0.462142 6.446034 -5.055417 24.564046 -35.755015 8.033761 12.478923 15.899843 -27.106823 0.000000 0.000000 0.000000 -7.125000 0.000000 0.000000 -19.322234 56.582987 5.632663 0.000000 0.000000 0.000000 -6.572101 6.468268 5.424829 -18.682499 -29.022225 -4.875848 -31.360767 -17.575061 -16.039345 0.000000 0.000000 0.000000 7.125000 0.000000 0.000000 -2.399899 11.385355 -1.880664
-8.594367 17.850897 -7.621243 -5.314862 46.097340 -358.381207 0.000000 0.000000 0.000000 -6.586364 -5.733395 -24.913328 3.594816 11.600451 34.333177 -0.056223 11.560868 -15.639165 0.066095 1.656018 4.556020 0.000000 0.000000 0.000000 20.559421 6.602704 -13.204343 -3.960896 -12.108222 36.115833 -0.546040 -15.804820 -27.144395 -0.740888 -5.498539 15.336124 4.719841 -2.573665 9.626223 3.525620 -2.679531 0.535581 1.397684 -1.367688 -4.892143 -2.817320 0.672963 -7.766012 -7.865598 5.531922 37.760822 -1.885236 1.301819 14.554961 0.000000 0.000000 0.000000 -1.146870 6.444062 -7.329701 23.553188 -34.688177 7.450733 10.405976 16.378048 -26.942770 0.000000 0.000000 0.000000 -7.125000 0.000000 0.000000 -21.302529 56.011298 5.943892 0.000000 0.000000 0.000000 -7.066804 8.147237 2.431609 -18.461155 -28.743506 -4.768974 -31.070752 -17.680051 -14.843341 0.000000 0.000000 0.000000 7.125000 0.000000 0.000000 -2.352551 12.797902 -1.774431
-7.372748 17.980948 -8.245878 -0.352383 53.982450 -354.223018 0.000000 0.000000 0.000000 -15.287469 -9.072785 -21.277229 2.645256 10.097137 29.291928 0.345526 6.692374 -15.542946 0.309072 3.562192 9.849395 0.000000 0.000000 0.000000 13.951130 7.963470 -13.844076 -5.406876 -13.827337 42.551155 0.329967 -21.805212 -28.396132 -3.248922 -11.069367 32.534575 3.517385 -2.655339 9.178873 3.148271 -2.979553 0.896692 1.676694 -1.488898 -4.224417 -5.081423 -2.210985 -7.824923 -6.707533 1.346369 37.256568 -1.557956 -0.627894 14.148686 0.000000 0.000000 0.000000 -2.415718 4.957079 -12.039898 23.608720 -34.747715 7.482359 11.113024 15.877168 -26.734794 0.000000 0.000000 0.000000 -7.125000 0.000000 0.000000 -20.464898 55.957615 5.670959 0.000000 0.000000 0.000000 -6.839644 8.811794 -2.606097 -16.692844 -26.451018 -3.949544 -31.510518 -15.003563 -14.220053 0.000000 0.000000 0.000000 7.125000 0.000000 0.000000 -2.718039 13.438044 -2.015905
-6.295315 17.985734 -8.749541 2.313750 59.908025 -351.706671 0.000000 0.000000 0.000000 -20.603911 -11.106601 -19.023083 2.614528 10.043234 29.116882 0.682055 2.030797 -16.466666 0.909629 6.076890 17.007938 0.000000 0.000000 0.000000 11.297154 15.020295 -18.690308 -9.043196 -16.834830 56.238576 0.979402 -19.392934 -17.001763 -4.772080 -13.114904 39.813133 1.539004 -2.454444 10.133712 3.731173 -2.842087 1.005168 3.421091 -1.375958 -4.516432 -6.487308 -4.496747 -6.959637 -5.402732 -2.193033 37.162960 -1.235967 -2.141041 13.904535 0.000000 0.000000 0.000000 -3.250026 5.095982 -14.023804 24.543226 -35.733435 8.021604 11.070628 14.134936 -26.575979 0.000000 0.000000 0.000000 -7.125000 0.000000 0.000000 -20.406577 55.800749 5.573989 0.000000 0.000000 0.000000 -6.594797 9.437224 0.474768 -16.546334 -26.255879 -3.884560 -30.966275 -14.945671 -16.294191 0.000000 0.000000 0.000000 7.125000 0.000000 0.000000 -2.108765 11.165497 -1.661624
-5.359617 17.835460 -8.933030 -0.364138 65.054259 -353.303648 0.000000 0.000000 0.000000 -21.270192 -12.156764 -19.414723 3.367494 11.267434 33.187065 1.194752 -2.698761 -19.943690 1.319449 7.274004 20.530218 0.000000 0.000000 0.000000 14.520414 19.077314 -29.492188 -10.973030 -17.921890 62.694055 -0.559181 1.856357 -13.609405 -0.063122 -1.620141 4.456874 1.006569 -3.401090 10.891844 4.315519 -4.090026 1.206989 4.549142 -1.971279 -4.587547 -6.708884 -5.320123 -6.892367 -3.760860 -3.932126 37.324092 -0.775958 -2.724543 14.001440 0.000000 0.000000 0.000000 -2.554519 5.093320 -9.063650 23.699701 -34.845112 7.534308 12.110946 13.919616 -28.978896 0.000000 0.000000 0.000000 -7.125000 0.000000 0.000000 -20.952105 58.258195 6.994033 0.000000 0.000000 0.000000 -4.339365 6.910706 3.738075 -17.870290 -27.990764 -4.488201 -31.078255 -17.086128 -16.084312 0.000000 0.000000 0.000000 7.125000 0.000000 0.000000 -2.208147 11.383901 -1.730233
